<?xml version="1.0" encoding="utf-8"?>
<!-- Generator: Adobe Illustrator 25.4.6, SVG Export Plug-In . SVG Version: 6.00 Build 0)  -->
<svg version="1.1" id="Capa_1" xmlns="http://www.w3.org/2000/svg" xmlns:xlink="http://www.w3.org/1999/xlink" x="0px" y="0px"
	 viewBox="0 0 105.5 54.1" style="enable-background:new 0 0 105.5 54.1;" xml:space="preserve">
<style type="text/css">
	.st0{fill:#2472B6;}
	.st1{fill:url(#SVGID_1_);}
	.st2{font-family:'AGaramondPro-BoldItalic';}
	.st3{font-size:3.8023px;}
	.st4{fill:#FFFFFF;}
	.st5{fill:url(#SVGID_00000165923784250079967110000014394537394975183266_);}
	.st6{fill:#878787;}
	.st7{fill:#FCC216;}
	.st8{fill:#0079B8;}
</style>
<path class="st0" d="M69.5,37.4c0.2,0.2,0.5,0.3,0.7,0.4l-0.1,0.5c-0.9,0-2.2-0.1-3.8-0.1c-1.8,0-3,0-3.9,0.1l0.1-0.5
	c0.5,0,0.9-0.1,1.2-0.2c0.3-0.1,0.5-0.3,0.6-0.5c0.1-0.3,0.2-0.7,0.1-1.2l-0.2-3.7h-4.4l-2.2,3.1c-0.4,0.5-0.5,0.9-0.5,1.3
	c0,0.7,0.7,1.1,2.1,1.2l-0.1,0.5c-1.6,0-2.6-0.1-3.2-0.1c-0.5,0-1,0-1.5,0.1l0.1-0.5c0.4-0.1,0.8-0.4,1.2-0.7c0.4-0.4,0.9-1,1.6-2
	l9.2-13c0.4,0,0.6,0,0.9,0c0.2,0,0.5,0,0.8,0l0.9,14.3C69.1,36.8,69.3,37.2,69.5,37.4z M64.2,31.7L64,26.3l-3.8,5.4H64.2z"/>
<path class="st0" d="M82.7,34.5h0.4l-0.6,1.7c-0.5,1.6-1.6,2.3-3.2,2.3c-1,0-1.6-0.3-2-0.8c-0.3-0.3-0.4-0.8-0.4-1.3
	c0-0.5,0.1-1.1,0.4-1.8l1.9-5.9c0.1-0.3,0.2-0.6,0.2-0.9c0-0.2-0.1-0.3-0.2-0.3c-0.4,0-0.9,0.5-1.5,1.6c-0.6,1.1-1.3,2.4-1.9,4.1
	c-0.6,1.6-1.2,3.3-1.6,5v0l0,0.1h-4l2.8-9.8c0.1-0.3,0.1-0.5,0.1-0.7c0-0.2-0.1-0.3-0.3-0.3c-0.2,0-0.5,0.1-0.7,0.3
	c-0.2,0.2-0.4,0.6-0.6,1.1l-0.5,1.4h-0.4l0.6-1.8c0.3-0.8,0.7-1.4,1.2-1.8c0.5-0.4,1.1-0.6,1.9-0.6c0.8,0,1.5,0.2,1.8,0.6
	c0.4,0.4,0.6,0.9,0.6,1.5c0,0.3,0,0.7-0.1,1l-0.6,2.4c0.6-1.5,1.2-2.6,1.7-3.4c0.5-0.8,1.1-1.3,1.6-1.7c0.6-0.3,1.2-0.5,1.9-0.5
	c1.5,0,2.2,0.6,2.2,1.9c0,0.4-0.1,0.9-0.3,1.5l-2.2,6.7c-0.1,0.3-0.1,0.4-0.1,0.5c0,0.3,0.1,0.4,0.4,0.4c0.4,0,0.8-0.5,1.2-1.4
	L82.7,34.5z M79.2,20.4c0.3,0.2,0.6,0.4,0.9,0.7c0.3,0.2,0.5,0.4,0.7,0.5c0.2,0.1,0.4,0.2,0.7,0.2c0.3,0,0.6-0.1,0.9-0.3
	c0.3-0.2,0.5-0.5,0.8-1l0.4,0.1c-0.4,1.2-1,2.2-1.7,2.8c-0.7,0.6-1.4,0.9-2.2,0.9c-0.4,0-0.8-0.1-1.1-0.2c-0.3-0.2-0.6-0.4-0.9-0.7
	c-0.3-0.2-0.5-0.4-0.7-0.5c-0.2-0.1-0.4-0.2-0.7-0.2c-0.3,0-0.6,0.1-0.9,0.3c-0.3,0.2-0.5,0.5-0.8,1l-0.4-0.1c0.4-1.2,1-2.2,1.7-2.8
	c0.7-0.6,1.4-0.9,2.2-0.9C78.6,20.1,79,20.2,79.2,20.4z"/>
<path class="st0" d="M83.5,30.8c0.6-1.3,1.5-2.4,2.7-3.3c1.2-0.9,2.6-1.3,4.3-1.3c1.3,0,2.3,0.3,3,1c0.7,0.7,1,1.6,1,2.9
	c0,1.3-0.3,2.6-0.9,3.9c-0.6,1.3-1.5,2.4-2.7,3.3c-1.2,0.9-2.6,1.3-4.3,1.3c-1.3,0-2.3-0.3-3-1c-0.7-0.7-1-1.6-1-2.9
	C82.7,33.4,83,32.1,83.5,30.8z M88.8,28.3c-0.6,1.1-1.2,2.5-1.7,4.1c-0.5,1.6-0.7,3.1-0.7,4.4c0,0.5,0,0.8,0.1,1
	c0.1,0.2,0.2,0.3,0.3,0.3c0.4,0,0.9-0.5,1.6-1.6c0.6-1.1,1.2-2.4,1.7-4c0.5-1.6,0.7-3.1,0.7-4.5c0-0.5,0-0.9-0.1-1.1
	c-0.1-0.2-0.2-0.3-0.3-0.3C90,26.6,89.5,27.2,88.8,28.3z"/>
<path class="st0" d="M97.1,38.1c0.5,0,0.9-0.2,1.2-0.5c0.3-0.3,0.5-0.7,0.5-1.3c0-0.5-0.1-1-0.3-1.5c-0.2-0.5-0.6-1.2-1-1.8
	c-0.5-0.8-0.8-1.4-1.1-1.9c-0.2-0.5-0.3-1-0.3-1.5c0-1,0.4-1.8,1.2-2.5c0.8-0.6,1.9-1,3.4-1c1.1,0,2,0.2,2.8,0.6
	c0.7,0.4,1.1,1.1,1.1,2c0,0.5-0.1,1-0.4,1.4c-0.3,0.4-0.7,0.6-1.2,0.6c-0.5,0-0.8-0.2-1.1-0.5c-0.3-0.4-0.4-0.8-0.4-1.4
	c0-0.4,0.1-0.8,0.2-1.2c0.1-0.4,0.3-0.7,0.5-0.9c-0.1-0.1-0.3-0.1-0.6-0.1c-0.5,0-0.9,0.2-1.2,0.5c-0.3,0.3-0.4,0.8-0.4,1.3
	c0,0.4,0.1,0.7,0.2,1.1c0.2,0.4,0.4,0.8,0.8,1.5l0.3,0.5c0.5,0.9,0.8,1.6,1.1,2.1c0.2,0.5,0.3,1.1,0.3,1.6c0,0.6-0.2,1.2-0.5,1.7
	c-0.3,0.5-0.9,0.9-1.5,1.2c-0.7,0.3-1.5,0.5-2.5,0.5c-1.2,0-2.2-0.2-3-0.7c-0.8-0.4-1.2-1.2-1.2-2.2c0-0.6,0.1-1.1,0.4-1.4
	s0.7-0.6,1.1-0.6c0.4,0,0.8,0.2,1.1,0.5c0.3,0.4,0.4,0.8,0.4,1.5c0,0.4-0.1,0.8-0.2,1.1c-0.1,0.3-0.3,0.7-0.5,1.2
	C96.6,38,96.8,38.1,97.1,38.1z"/>
<g>
	<g>
		<linearGradient id="SVGID_1_" gradientUnits="userSpaceOnUse" x1="16.6023" y1="45.4545" x2="16.6023" y2="0.7921">
			<stop  offset="0" style="stop-color:#008FCF"/>
			<stop  offset="0.7504" style="stop-color:#343386"/>
			<stop  offset="0.9911" style="stop-color:#652881"/>
		</linearGradient>
		<path class="st1" d="M32.5,2c-3.7,1-7.4,3.1-10.9,6.4c-3.5,3.2-6.4,7.4-8.7,12.3c-2.3,5-3.4,10.5-3.4,16.4c0,2.7,0.3,4.5,0.8,5.6
			c0.5,1,1.3,1.5,2.4,1.5c1.7,0,3.3-1,4.7-3c1.4-2,2.5-4.4,3.3-7.2c0.8-2.8,1.2-5.4,1.2-7.8c0-1.9-0.3-3.2-0.8-4.1
			c-0.5-0.8-1.3-1.3-2.2-1.3c-1,0-2,0.5-3,1.5c-1,1-1.8,2.6-2.5,4.7l-1-0.3c1.7-5.9,5-8.8,9.9-8.8c2.6,0,4.7,0.8,6.3,2.4
			c1.6,1.6,2.4,3.9,2.4,6.8c0,3.1-0.9,6.1-2.7,8.9c-1.8,2.8-4.2,5.1-7.3,6.8s-6.3,2.5-9.8,2.5c-7,0-10.4-3.7-10.4-11.2
			c0-5.5,1.7-10.8,5.2-15.6c3.4-4.9,7.6-8.9,12.6-12c4.9-3.2,9.5-5.1,13.7-5.8L32.5,2z"/>
	</g>
</g>
<text transform="matrix(1 0 0 1 50.8232 43.2739)"><tspan x="0" y="0" class="st0 st2 st3"> FORMANDO PROFESIONALES</tspan><tspan x="0" y="4.6" class="st0 st2 st3">PARA LA REGIÓN Y EL PAÍS</tspan></text>
<path class="st4" d="M37.3,27.9c0,0-1.1-0.2-1.3,0c-0.3,0.2-0.2,0.4-0.2,0.4s0,0.3,0.4,0.2s1.6-0.6,1.6-0.6L37.3,27.9z"/>
<linearGradient id="SVGID_00000119837268440121676530000015289561626320665265_" gradientUnits="userSpaceOnUse" x1="36.7404" y1="52.3309" x2="36.7404" y2="9.3219">
	<stop  offset="0" style="stop-color:#008FCF"/>
	<stop  offset="0.3748" style="stop-color:#008FCF"/>
	<stop  offset="0.4276" style="stop-color:#008CCC"/>
	<stop  offset="0.5027" style="stop-color:#0083C5"/>
	<stop  offset="0.5909" style="stop-color:#0074B8"/>
	<stop  offset="0.6893" style="stop-color:#015EA6"/>
	<stop  offset="0.7948" style="stop-color:#2E408F"/>
	<stop  offset="0.8187" style="stop-color:#31398A"/>
	<stop  offset="1" style="stop-color:#652881"/>
</linearGradient>
<path style="fill:url(#SVGID_00000119837268440121676530000015289561626320665265_);" d="M31.2,14.5c1.3-1.5,3.2-2.7,5.4-3.7
	c2.3-1,4.8-1.4,7.5-1.4c3.1,0,5.6,0.6,7.5,1.7c1.8,1.1,2.8,2.7,2.8,4.6c0,2.7-1.5,5-4.4,7.1c-3,2-6.3,3.5-10.1,4.4
	c3.6,0.1,6.5,0.8,8.7,2c2.2,1.3,3.3,3.2,3.3,5.7c0,3.4-1.8,6.4-5.3,9c-3.5,2.6-7.8,4.7-12.9,6.1c-5.1,1.5-9.9,2.2-14.5,2.3l0.3-1.1
	c3.5-0.2,7.1-1,10.6-2.4c3.6-1.4,6.5-3.4,8.9-6c2.4-2.6,3.6-5.6,3.6-9c0-1.7-0.3-3-1-4.1c-0.7-1-1.6-1.6-2.8-1.7
	c-0.7,0.3-1.3,0.5-2,0.8c-0.7,0.2-1.2,0.3-1.7,0.3c-0.9,0-1.3-0.3-1.1-0.9c0.2-0.8,1.2-1.2,3-1.2l1.2,0.1c2.3-1,4.2-2.3,5.6-4
	c1.4-1.7,2.2-3.7,2.2-5.9c0-1.8-0.5-3.1-1.5-4.2c-1-1-2.5-1.5-4.3-1.5c-1.5,0-2.9,0.4-4.4,1.1c-1.5,0.7-2.4,1.4-3.4,2.5L31.2,14.5z"
	/>
<g>
	<g>
		<g>
			<path class="st6" d="M79.5,5.1c0,0.2-0.1,0.3-0.2,0.4c-0.1,0.1-0.2,0.2-0.3,0.2c-0.1,0.1-0.3,0.1-0.5,0.1c-0.2,0-0.3,0-0.5-0.1
				c-0.1,0-0.3-0.1-0.4-0.2c-0.1-0.1-0.2-0.2-0.2-0.4c-0.1-0.2-0.1-0.4-0.1-0.6V2.8h0.6v1.9c0,0.1,0,0.2,0,0.3c0,0.1,0,0.2,0.1,0.2
				c0,0.1,0.1,0.1,0.2,0.1c0.1,0,0.2,0,0.3,0c0.2,0,0.4-0.1,0.4-0.2C79,5,79,4.9,79,4.6V2.8h0.5v1.8C79.6,4.7,79.5,4.9,79.5,5.1z"/>
			<path class="st6" d="M82.6,5.8c0,0-0.1,0-0.1,0c0,0-0.1,0-0.1,0c0,0-0.1,0-0.1,0c0,0-0.1,0-0.1,0L81,3.9c0,0,0,0,0-0.1
				c0,0,0-0.1,0-0.1c0,0,0-0.1,0-0.1c0,0,0-0.1,0-0.1l0,0c0,0.1,0,0.1,0,0.2c0,0.1,0,0.1,0,0.2v1.9h-0.5v-3c0,0,0.1,0,0.1,0
				c0.1,0,0.1,0,0.2,0c0.1,0,0.1,0,0.2,0c0,0,0.1,0,0.1,0l1,1.8c0,0,0,0.1,0.1,0.2c0,0.1,0,0.1,0.1,0.2l0,0c0,0,0-0.1,0-0.2
				c0-0.1,0-0.1,0-0.2V2.8h0.5V5.8z"/>
			<path class="st6" d="M83.4,5.8v-3h0.6v3H83.4z"/>
			<path class="st6" d="M86.8,2.8c-0.1,0.5-0.3,1-0.4,1.5c-0.2,0.5-0.3,1-0.5,1.5h-0.6c-0.2-0.5-0.3-1-0.5-1.5
				c-0.1-0.5-0.3-1-0.4-1.5c0.1,0,0.2,0,0.3,0c0.1,0,0.2,0,0.3,0l0.6,2.2c0,0,0,0.1,0,0.1c0,0,0,0.1,0,0.1h0c0,0,0-0.1,0-0.1
				c0,0,0-0.1,0-0.1l0.6-2.2c0,0,0.1,0,0.1,0c0,0,0.1,0,0.1,0c0,0,0.1,0,0.1,0C86.8,2.8,86.8,2.8,86.8,2.8z"/>
			<path class="st6" d="M89.1,5.5c0,0.1,0,0.2,0,0.3h-1.8v-3H89c0,0.1,0,0.2,0,0.2c0,0.1,0,0.2,0,0.2h-1.1V4h0.8v0.5h-0.8v0.8h1.2
				C89.1,5.4,89.1,5.4,89.1,5.5z"/>
			<path class="st6" d="M91.6,5.8c-0.1,0-0.2,0-0.3,0L91,5.3C91,5.2,90.9,5,90.8,4.9c-0.1-0.1-0.2-0.2-0.2-0.3h-0.3v1.2h-0.5v-3
				c0.2,0,0.4,0,0.5,0c0.1,0,0.3,0,0.4,0c0.1,0,0.3,0,0.4,0c0.1,0,0.2,0.1,0.3,0.2c0.1,0.1,0.2,0.2,0.2,0.3c0.1,0.1,0.1,0.2,0.1,0.4
				c0,0.1,0,0.2,0,0.3c0,0.1-0.1,0.2-0.1,0.2c-0.1,0.1-0.1,0.1-0.2,0.2c-0.1,0-0.1,0.1-0.2,0.1c0.2,0.2,0.3,0.4,0.5,0.7l0.3,0.7
				C91.8,5.8,91.7,5.8,91.6,5.8z M91.1,3.6c0-0.2,0-0.3-0.1-0.4c-0.1-0.1-0.2-0.1-0.3-0.1c-0.1,0-0.1,0-0.2,0c-0.1,0-0.1,0-0.2,0v1
				h0.3c0.2,0,0.3,0,0.4-0.1C91,4,91.1,3.8,91.1,3.6z"/>
			<path class="st6" d="M94.1,4.9c0,0.1,0,0.3-0.1,0.4c-0.1,0.1-0.1,0.2-0.2,0.3c-0.1,0.1-0.2,0.1-0.3,0.2c-0.1,0-0.3,0.1-0.4,0.1
				c-0.1,0-0.3,0-0.4,0c-0.1,0-0.3-0.1-0.4-0.1c0-0.1,0-0.2,0-0.3c0-0.1,0-0.2,0.1-0.2c0.1,0.1,0.2,0.1,0.4,0.1c0.1,0,0.3,0,0.4,0
				c0.1,0,0.3,0,0.3-0.1c0.1-0.1,0.1-0.2,0.1-0.3c0-0.1,0-0.2-0.1-0.2c-0.1-0.1-0.1-0.1-0.2-0.2c-0.1-0.1-0.2-0.1-0.3-0.2
				c-0.1-0.1-0.2-0.1-0.3-0.2c-0.1-0.1-0.2-0.2-0.2-0.3c-0.1-0.1-0.1-0.2-0.1-0.4c0-0.1,0-0.3,0.1-0.4c0.1-0.1,0.1-0.2,0.2-0.3
				c0.1-0.1,0.2-0.1,0.3-0.2c0.1,0,0.3-0.1,0.4-0.1c0.1,0,0.2,0,0.3,0c0.1,0,0.2,0,0.3,0.1c0,0.1,0,0.1,0,0.2c0,0.1,0,0.2,0,0.2
				c-0.1,0-0.2,0-0.3-0.1c-0.1,0-0.2,0-0.3,0c-0.2,0-0.3,0-0.3,0.1c-0.1,0.1-0.1,0.2-0.1,0.3c0,0.1,0,0.2,0.1,0.2
				c0.1,0.1,0.1,0.1,0.2,0.2C93.2,4,93.3,4,93.4,4.1c0.1,0.1,0.2,0.1,0.3,0.2c0.1,0.1,0.2,0.2,0.2,0.3C94,4.6,94.1,4.8,94.1,4.9z"/>
			<path class="st6" d="M94.7,5.8v-3h0.6v3H94.7z"/>
			<path class="st6" d="M98.4,4.2c0,0.3,0,0.5-0.1,0.7c-0.1,0.2-0.2,0.4-0.3,0.5c-0.1,0.1-0.3,0.2-0.4,0.3c-0.2,0.1-0.3,0.1-0.5,0.1
				c-0.1,0-0.2,0-0.3,0c-0.1,0-0.2,0-0.3,0c-0.1,0-0.2,0-0.3,0c-0.1,0-0.2,0-0.2,0v-3c0.1,0,0.1,0,0.2,0c0.1,0,0.2,0,0.3,0
				c0.1,0,0.2,0,0.3,0c0.1,0,0.2,0,0.2,0c0.2,0,0.4,0,0.5,0.1c0.2,0.1,0.3,0.1,0.4,0.3c0.1,0.1,0.2,0.3,0.3,0.5
				C98.3,3.7,98.4,3.9,98.4,4.2z M97.8,4.3c0-0.2,0-0.4-0.1-0.5c0-0.1-0.1-0.2-0.2-0.3c-0.1-0.1-0.1-0.1-0.2-0.2c-0.1,0-0.2,0-0.3,0
				c-0.1,0-0.1,0-0.2,0c-0.1,0-0.2,0-0.2,0v2.1c0.1,0,0.1,0,0.2,0c0.1,0,0.2,0,0.2,0c0.3,0,0.4-0.1,0.6-0.3
				C97.7,4.9,97.8,4.6,97.8,4.3z"/>
			<path class="st6" d="M101.1,5.7c-0.1,0-0.2,0-0.3,0c-0.1,0-0.2,0-0.3,0L100.4,5h-0.9l-0.2,0.8c-0.1,0-0.2,0-0.3,0
				c-0.1,0-0.2,0-0.2,0c0.1-0.5,0.3-1,0.4-1.5c0.2-0.5,0.3-1,0.5-1.5h0.6c0.2,0.5,0.3,1,0.5,1.5C100.9,4.8,101,5.3,101.1,5.7z
				 M99.9,3.5c0,0,0-0.1,0-0.1c0,0,0-0.1,0-0.1h0c0,0,0,0.1,0,0.1c0,0,0,0.1,0,0.1l-0.3,1h0.7L99.9,3.5z"/>
			<path class="st6" d="M104,4.2c0,0.3,0,0.5-0.1,0.7c-0.1,0.2-0.2,0.4-0.3,0.5c-0.1,0.1-0.3,0.2-0.4,0.3c-0.2,0.1-0.3,0.1-0.5,0.1
				c-0.1,0-0.2,0-0.3,0c-0.1,0-0.2,0-0.3,0c-0.1,0-0.2,0-0.3,0c-0.1,0-0.2,0-0.2,0v-3c0.1,0,0.1,0,0.2,0c0.1,0,0.2,0,0.3,0
				c0.1,0,0.2,0,0.3,0c0.1,0,0.2,0,0.2,0c0.2,0,0.4,0,0.5,0.1c0.2,0.1,0.3,0.1,0.4,0.3c0.1,0.1,0.2,0.3,0.3,0.5
				C103.9,3.7,104,3.9,104,4.2z M103.4,4.3c0-0.2,0-0.4-0.1-0.5c0-0.1-0.1-0.2-0.2-0.3c-0.1-0.1-0.1-0.1-0.2-0.2c-0.1,0-0.2,0-0.3,0
				c-0.1,0-0.1,0-0.2,0c-0.1,0-0.2,0-0.2,0v2.1c0.1,0,0.1,0,0.2,0c0.1,0,0.2,0,0.2,0c0.3,0,0.4-0.1,0.6-0.3
				C103.3,4.9,103.4,4.6,103.4,4.3z"/>
			<path class="st6" d="M79.3,9.9c-0.1,0.1-0.2,0.1-0.4,0.2c-0.2,0-0.3,0-0.4,0c-0.4,0-0.8-0.1-1-0.4c-0.2-0.3-0.3-0.7-0.3-1.2
				c0-0.3,0-0.5,0.1-0.7c0.1-0.2,0.2-0.4,0.3-0.5c0.1-0.1,0.3-0.2,0.4-0.3c0.2-0.1,0.3-0.1,0.5-0.1c0.1,0,0.1,0,0.2,0
				c0.1,0,0.1,0,0.2,0c0.1,0,0.1,0,0.2,0c0.1,0,0.1,0,0.2,0.1c0,0.1,0,0.2,0,0.2c0,0.1,0,0.2-0.1,0.3c-0.1-0.1-0.2-0.1-0.3-0.1
				c-0.1,0-0.2,0-0.4,0c-0.1,0-0.2,0-0.3,0.1c-0.1,0-0.2,0.1-0.2,0.2c-0.1,0.1-0.1,0.2-0.1,0.3c0,0.1-0.1,0.3-0.1,0.5
				c0,0.4,0.1,0.7,0.2,0.8c0.1,0.2,0.3,0.2,0.6,0.2c0.1,0,0.3,0,0.4-0.1c0.1,0,0.2-0.1,0.3-0.1c0,0.1,0,0.2,0.1,0.2
				C79.3,9.7,79.3,9.8,79.3,9.9z"/>
			<path class="st6" d="M82,10c-0.1,0-0.2,0-0.3,0c-0.1,0-0.2,0-0.3,0l-0.2-0.8h-0.9L80,10c-0.1,0-0.2,0-0.3,0c-0.1,0-0.2,0-0.2,0
				c0.1-0.5,0.3-1,0.4-1.5c0.2-0.5,0.3-1,0.5-1.5h0.6c0.2,0.5,0.3,1,0.5,1.5C81.7,9,81.8,9.5,82,10z M80.8,7.8c0,0,0-0.1,0-0.1
				c0,0,0-0.1,0-0.1h0c0,0,0,0.1,0,0.1c0,0,0,0.1,0,0.1l-0.3,1h0.7L80.8,7.8z"/>
			<path class="st6" d="M84,7.2c0,0.1,0,0.2,0,0.2h-0.7V10h-0.6V7.5H82V7h2C84,7.1,84,7.2,84,7.2z"/>
			<path class="st6" d="M86.8,8.5c0,0.3,0,0.5-0.1,0.7c-0.1,0.2-0.1,0.4-0.3,0.5c-0.1,0.1-0.2,0.2-0.4,0.3c-0.2,0.1-0.3,0.1-0.5,0.1
				c-0.2,0-0.4,0-0.5-0.1c-0.2-0.1-0.3-0.1-0.4-0.3c-0.1-0.1-0.2-0.3-0.3-0.5c-0.1-0.2-0.1-0.4-0.1-0.7c0-0.3,0-0.5,0.1-0.7
				c0.1-0.2,0.1-0.4,0.3-0.5C84.8,7.2,84.9,7.1,85,7c0.2-0.1,0.3-0.1,0.5-0.1c0.2,0,0.4,0,0.5,0.1c0.2,0.1,0.3,0.2,0.4,0.3
				c0.1,0.1,0.2,0.3,0.3,0.5C86.8,8,86.8,8.2,86.8,8.5z M86.2,8.5c0-0.2,0-0.4,0-0.5c0-0.1-0.1-0.2-0.1-0.3
				c-0.1-0.1-0.1-0.1-0.2-0.2c-0.1,0-0.2-0.1-0.3-0.1c-0.1,0-0.2,0-0.3,0.1c-0.1,0-0.2,0.1-0.2,0.2C85,7.7,85,7.8,84.9,8
				c0,0.1,0,0.3,0,0.5c0,0.2,0,0.4,0,0.5c0,0.1,0.1,0.2,0.1,0.3c0.1,0.1,0.1,0.1,0.2,0.2c0.1,0,0.2,0.1,0.3,0.1c0.1,0,0.2,0,0.3-0.1
				c0.1,0,0.2-0.1,0.2-0.2c0.1-0.1,0.1-0.2,0.1-0.3C86.2,8.9,86.2,8.7,86.2,8.5z M86,6.6c-0.1,0.1-0.1,0.2-0.2,0.2
				c-0.1,0-0.2,0-0.2,0c-0.1,0-0.2,0-0.2,0l0.3-0.5h0.6C86.1,6.5,86,6.5,86,6.6z"/>
			<path class="st6" d="M89.1,9.8c0,0.1,0,0.2,0,0.2h-1.7V7H88v2.5h1.1C89.2,9.6,89.2,9.7,89.1,9.8z"/>
			<path class="st6" d="M89.7,10V7h0.6v3H89.7z"/>
			<path class="st6" d="M93,9.9c-0.1,0.1-0.2,0.1-0.4,0.2c-0.2,0-0.3,0-0.4,0c-0.4,0-0.8-0.1-1-0.4c-0.2-0.3-0.3-0.7-0.3-1.2
				c0-0.3,0-0.5,0.1-0.7c0.1-0.2,0.2-0.4,0.3-0.5c0.1-0.1,0.3-0.2,0.4-0.3c0.2-0.1,0.3-0.1,0.5-0.1c0.1,0,0.1,0,0.2,0
				c0.1,0,0.1,0,0.2,0c0.1,0,0.1,0,0.2,0c0.1,0,0.1,0,0.2,0.1c0,0.1,0,0.2,0,0.2c0,0.1,0,0.2-0.1,0.3c-0.1-0.1-0.2-0.1-0.3-0.1
				c-0.1,0-0.2,0-0.4,0c-0.1,0-0.2,0-0.3,0.1c-0.1,0-0.2,0.1-0.2,0.2c-0.1,0.1-0.1,0.2-0.1,0.3c0,0.1-0.1,0.3-0.1,0.5
				c0,0.4,0.1,0.7,0.2,0.8c0.1,0.2,0.3,0.2,0.6,0.2c0.1,0,0.3,0,0.4-0.1c0.1,0,0.2-0.1,0.3-0.1c0,0.1,0,0.2,0.1,0.2
				C93,9.7,93,9.8,93,9.9z"/>
			<path class="st6" d="M95.7,10c-0.1,0-0.2,0-0.3,0c-0.1,0-0.2,0-0.3,0l-0.2-0.8h-0.9L93.7,10c-0.1,0-0.2,0-0.3,0
				c-0.1,0-0.2,0-0.2,0c0.1-0.5,0.3-1,0.4-1.5c0.2-0.5,0.3-1,0.5-1.5h0.6c0.2,0.5,0.3,1,0.5,1.5C95.4,9,95.5,9.5,95.7,10z M94.5,7.8
				c0,0,0-0.1,0-0.1c0,0,0-0.1,0-0.1h0c0,0,0,0.1,0,0.1c0,0,0,0.1,0,0.1l-0.3,1h0.7L94.5,7.8z"/>
			<path class="st6" d="M99.3,8.4c0,0.3,0,0.5-0.1,0.7c-0.1,0.2-0.2,0.4-0.3,0.5c-0.1,0.1-0.3,0.2-0.4,0.3C98.4,10,98.2,10,98,10
				c-0.1,0-0.2,0-0.3,0c-0.1,0-0.2,0-0.3,0c-0.1,0-0.2,0-0.3,0c-0.1,0-0.2,0-0.2,0V7c0.1,0,0.1,0,0.2,0c0.1,0,0.2,0,0.3,0
				c0.1,0,0.2,0,0.3,0c0.1,0,0.2,0,0.2,0c0.2,0,0.4,0,0.5,0.1c0.2,0.1,0.3,0.1,0.4,0.3c0.1,0.1,0.2,0.3,0.3,0.5
				C99.3,7.9,99.3,8.2,99.3,8.4z M98.7,8.5c0-0.2,0-0.4-0.1-0.5c0-0.1-0.1-0.2-0.2-0.3c-0.1-0.1-0.1-0.1-0.2-0.2c-0.1,0-0.2,0-0.3,0
				c-0.1,0-0.1,0-0.2,0c-0.1,0-0.2,0-0.2,0v2.1c0.1,0,0.1,0,0.2,0c0.1,0,0.2,0,0.2,0c0.3,0,0.4-0.1,0.6-0.3
				C98.7,9.1,98.7,8.9,98.7,8.5z"/>
			<path class="st6" d="M101.8,9.8c0,0.1,0,0.2,0,0.2H100V7h1.7c0,0.1,0,0.2,0,0.2c0,0.1,0,0.2,0,0.2h-1.1v0.7h0.8v0.5h-0.8v0.8h1.2
				C101.8,9.6,101.8,9.7,101.8,9.8z"/>
			<path class="st6" d="M79,11.5c0,0.1,0,0.2,0,0.2h-0.7v2.5h-0.6v-2.5H77v-0.5h2C79,11.3,79,11.4,79,11.5z"/>
			<path class="st6" d="M81.3,14c0,0.1,0,0.2,0,0.3h-1.8v-3h1.7c0,0.1,0,0.2,0,0.2c0,0.1,0,0.2,0,0.2H80v0.7h0.8v0.5H80v0.8h1.2
				C81.3,13.8,81.3,13.9,81.3,14z"/>
			<path class="st6" d="M85,14.2c-0.1,0-0.2,0-0.3,0c-0.1,0-0.2,0-0.3,0l-0.1-1.9c0,0,0,0,0-0.1c0,0,0-0.1,0-0.1c0,0,0-0.1,0-0.1
				c0,0,0-0.1,0-0.1h0c0,0.1,0,0.1,0,0.2c0,0.1,0,0.1,0,0.1l-0.6,1.9h-0.5l-0.6-1.9c0,0,0-0.1,0-0.1c0-0.1,0-0.1,0-0.2h0
				c0,0,0,0,0,0.1c0,0,0,0.1,0,0.1c0,0,0,0.1,0,0.1c0,0,0,0.1,0,0.1l-0.2,1.9c-0.1,0-0.2,0-0.2,0c-0.1,0-0.2,0-0.2,0
				c0-0.5,0.1-1,0.1-1.5c0-0.5,0.1-1,0.2-1.5h0.6l0.6,2c0,0,0,0.1,0,0.2c0,0.1,0,0.1,0,0.2h0c0-0.1,0-0.1,0-0.2c0-0.1,0-0.1,0-0.2
				l0.6-2h0.6c0.1,0.5,0.1,1,0.2,1.5C84.9,13.2,85,13.7,85,14.2z"/>
			<path class="st6" d="M87.9,13.6c0,0.2-0.1,0.3-0.2,0.4c-0.1,0.1-0.2,0.2-0.3,0.2c-0.1,0.1-0.3,0.1-0.5,0.1c-0.2,0-0.3,0-0.5-0.1
				c-0.1,0-0.3-0.1-0.4-0.2c-0.1-0.1-0.2-0.2-0.2-0.4c-0.1-0.2-0.1-0.4-0.1-0.6v-1.8h0.6v1.9c0,0.1,0,0.2,0,0.3c0,0.1,0,0.2,0.1,0.2
				c0,0.1,0.1,0.1,0.2,0.1c0.1,0,0.2,0,0.3,0c0.2,0,0.4-0.1,0.4-0.2c0.1-0.1,0.1-0.3,0.1-0.5v-1.9H88V13
				C88,13.2,87.9,13.4,87.9,13.6z"/>
			<path class="st6" d="M90.7,14.1c-0.1,0.1-0.2,0.1-0.4,0.1c-0.2,0-0.3,0-0.4,0c-0.4,0-0.8-0.1-1-0.4c-0.2-0.3-0.3-0.7-0.3-1.2
				c0-0.3,0-0.5,0.1-0.7c0.1-0.2,0.2-0.4,0.3-0.5c0.1-0.1,0.3-0.2,0.4-0.3c0.2-0.1,0.3-0.1,0.5-0.1c0.1,0,0.1,0,0.2,0
				c0.1,0,0.1,0,0.2,0c0.1,0,0.1,0,0.2,0c0.1,0,0.1,0,0.2,0.1c0,0.1,0,0.2,0,0.2c0,0.1,0,0.2-0.1,0.3c-0.1-0.1-0.2-0.1-0.3-0.1
				c-0.1,0-0.2,0-0.4,0c-0.1,0-0.2,0-0.3,0.1c-0.1,0-0.2,0.1-0.2,0.2c-0.1,0.1-0.1,0.2-0.1,0.3c0,0.1-0.1,0.3-0.1,0.5
				c0,0.4,0.1,0.7,0.2,0.8c0.1,0.2,0.3,0.2,0.6,0.2c0.1,0,0.3,0,0.4-0.1c0.1,0,0.2-0.1,0.3-0.1c0,0.1,0,0.2,0.1,0.2
				C90.7,13.9,90.7,14,90.7,14.1z"/>
			<path class="st6" d="M93.6,12.7c0,0.3,0,0.5-0.1,0.7c-0.1,0.2-0.1,0.4-0.3,0.5c-0.1,0.1-0.2,0.2-0.4,0.3
				c-0.2,0.1-0.3,0.1-0.5,0.1c-0.2,0-0.4,0-0.5-0.1c-0.2-0.1-0.3-0.1-0.4-0.3c-0.1-0.1-0.2-0.3-0.3-0.5c-0.1-0.2-0.1-0.4-0.1-0.7
				c0-0.3,0-0.5,0.1-0.7c0.1-0.2,0.1-0.4,0.3-0.5c0.1-0.1,0.2-0.2,0.4-0.3s0.3-0.1,0.5-0.1c0.2,0,0.4,0,0.5,0.1
				c0.2,0.1,0.3,0.2,0.4,0.3c0.1,0.1,0.2,0.3,0.3,0.5C93.6,12.2,93.6,12.5,93.6,12.7z M93,12.7c0-0.2,0-0.4,0-0.5
				c0-0.1-0.1-0.2-0.1-0.3c-0.1-0.1-0.1-0.1-0.2-0.2c-0.1,0-0.2-0.1-0.3-0.1c-0.1,0-0.2,0-0.3,0.1c-0.1,0-0.2,0.1-0.2,0.2
				c-0.1,0.1-0.1,0.2-0.1,0.3c0,0.1,0,0.3,0,0.5c0,0.2,0,0.4,0,0.5c0,0.1,0.1,0.2,0.1,0.3c0.1,0.1,0.1,0.1,0.2,0.2
				c0.1,0,0.2,0.1,0.3,0.1c0.1,0,0.2,0,0.3-0.1c0.1,0,0.2-0.1,0.2-0.2c0.1-0.1,0.1-0.2,0.1-0.3C93,13.1,93,12.9,93,12.7z"/>
		</g>
	</g>
	<g>
		<path class="st4" d="M75.4,8.4c0,3.9-3.2,7.1-7.1,7.1c-3.9,0-7.1-3.2-7.1-7.1c0-3.9,3.2-7.1,7.1-7.1C72.3,1.4,75.4,4.5,75.4,8.4z"
			/>
		<g>
			<path class="st7" d="M69.5,5.6V2.7c2.7,0.5,4.7,2.9,4.7,5.7c0,2.8-2,5.2-4.7,5.7V6.7h2.9V5.6H69.5z"/>
			<path class="st8" d="M63.1,5.8c1.1,1.8,3.1,2.9,5.3,2.9l0,5.6c-3.3,0-5.9-2.6-5.9-5.9C62.5,7.5,62.7,6.6,63.1,5.8z"/>
			<path class="st8" d="M68.4,2.6l0,1c-0.5,0-0.9-0.4-1-0.9C67.8,2.6,68.1,2.6,68.4,2.6z"/>
			<path class="st8" d="M68.4,6.7l0,0.9c-2,0-3.7-1.2-4.5-2.9c0.2-0.3,0.4-0.5,0.7-0.7C65.1,5.6,66.7,6.7,68.4,6.7L68.4,6.7z"/>
			<path class="st8" d="M66.4,3c0.2,1,1,1.7,2.1,1.7l0,0.9c-1.4,0-2.6-1-2.9-2.2C65.8,3.2,66.1,3.1,66.4,3z"/>
		</g>
		<g>
			<path class="st6" d="M68.4,15.6c-3.9,0-7.1-3.2-7.1-7.1c0-3.9,3.2-7.1,7.1-7.1c3.9,0,7.1,3.2,7.1,7.1
				C75.5,12.4,72.3,15.6,68.4,15.6z M68.4,1.4c-3.9,0-7,3.1-7,7c0,3.9,3.1,7,7,7c3.9,0,7-3.1,7-7C75.4,4.6,72.2,1.4,68.4,1.4z"/>
		</g>
	</g>
</g>
</svg>
